<svg width="231.118701171875px" height="119.5987548828125px" xmlns="http://www.w3.org/2000/svg" viewBox="134.4406494140625 15.20062255859375 231.118701171875 119.5987548828125" style="background: rgb(255, 255, 255);" preserveAspectRatio="xMidYMid"><defs><linearGradient id="editing-shiny-gradient" x1="0.7269952498697735" x2="0.2730047501302265" y1="0.9455032620941839" y2="0.054496737905816106" gradientUnits="objectBoundingBox"><stop offset="0.0" stop-color="#eeca77"></stop><stop offset="0.5" stop-color="#7db0dc"></stop><stop offset="1.0" stop-color="#ee6123"></stop></linearGradient><linearGradient id="editing-shiny-gradient2" x1="0" x2="0" y1="0" y2="1"><stop offset="0.2" stop-color="#fff" stop-opacity="0.8"></stop><stop offset="0.8" stop-color="#fff" stop-opacity="0"></stop></linearGradient><filter id="editing-shiny2" x="-100%" y="-100%" width="300%" height="300%"><feMorphology operator="erode" radius="2"></feMorphology></filter><filter id="editing-shiny" x="-100%" y="-100%" width="300%" height="300%"><feFlood flood-color="#fff" result="flood"></feFlood><feConvolveMatrix in="SourceGraphic" result="conv" order="8,8" divisor="1" kernelMatrix="0 0 0 0 0 0 0 0 0 0 0 1 1 0 0 0 0 0 0 1 1 0 0 0 0 0 1 0 0 1 0 0 0 0 1 0 0 1 0 0 0 1 0 0 0 0 1 0 0 1 1 0 0 1 1 0 0 0 0 1 1 0 0 0 "></feConvolveMatrix><feOffset dx="0" dy="4" in="conv" result="offset"></feOffset><feComposite operator="in" in="flood" in2="offset" result="comp"></feComposite><feGaussianBlur in="offset" stdDeviation="3" result="shadow"></feGaussianBlur><feColorMatrix in="shadow" type="matrix" values="0.7 0 0 0 0  0 0.7 0 0 0  0 0 0.7 0 0  0 0 0 0.3 0" result="dark-shadow"></feColorMatrix><feOffset dx="0" dy="4" in="dark-shadow" result="offset-shadow"></feOffset><feOffset dx="0" dy="2" in="conv" result="offset-2"></feOffset><feComposite operator="out" in="offset" in2="offset-2" result="edge-diff"></feComposite><feGaussianBlur in="edge-diff" stdDeviation="1" result="edge-blur"></feGaussianBlur><feColorMatrix in="edge-blur" result="edge-shadow" type="matrix" values="0 0 0 0 0  0 0 0 0 0  0 0 0 0 0  0 0 0 0.5 0"></feColorMatrix><feComposite operator="in" in="edge-shadow" in2="offset" result="edge-shadow-in"></feComposite><feOffset dx="0" dy="1" in="edge-shadow-in" result="edge-shadow-final"></feOffset><feMerge result="out"><feMergeNode in="offset-shadow"></feMergeNode><feMergeNode in="comp"></feMergeNode><feMergeNode in="edge-shadow-final"></feMergeNode><feMergeNode in="SourceGraphic"></feMergeNode></feMerge></filter></defs><g filter="url(#editing-shiny)"><g transform="translate(171.29718112945557, 101.74093818664551)"><path d="M30.73-28.10L30.73-28.10L30.73-28.10Q29.42-28.10 28.83-28.69L28.83-28.69L28.83-28.69Q28.25-29.27 27.01-31.17L27.01-31.17L18.10-44.75L18.10-44.75Q17.67-45.48 17.08-45.73L17.08-45.73L17.08-45.73Q16.50-45.99 15.91-45.99L15.91-45.99L14.67-45.99L14.67-45.99Q13.72-45.99 13.25-45.44L13.25-45.44L13.25-45.44Q12.77-44.89 12.77-43.73L12.77-43.73L12.77-6.57L13.50-6.57L13.50-43.73L13.50-43.73Q13.50-44.31 13.72-44.79L13.72-44.79L13.72-44.79Q13.94-45.26 14.67-45.26L14.67-45.26L15.77-45.26L15.77-45.26Q16.28-45.26 16.68-45.11L16.68-45.11L16.68-45.11Q17.08-44.97 17.52-44.24L17.52-44.24L26.43-30.81L26.43-30.81Q27.74-28.83 28.43-28.10L28.43-28.10L28.43-28.10Q29.13-27.38 30.73-27.38L30.73-27.38L30.73-27.38Q32.34-27.38 33.03-28.10L33.03-28.10L33.03-28.10Q33.73-28.83 35.04-30.81L35.04-30.81L43.95-44.24L43.95-44.24Q44.38-44.97 44.75-45.11L44.75-45.11L44.75-45.11Q45.11-45.26 45.63-45.26L45.63-45.26L46.72-45.26L46.72-45.26Q47.45-45.26 47.71-44.79L47.71-44.79L47.71-44.79Q47.96-44.31 47.96-43.73L47.96-43.73L47.96-6.57L48.69-6.57L48.69-43.73L48.69-43.73Q48.69-44.89 48.22-45.44L48.22-45.44L48.22-45.44Q47.74-45.99 46.72-45.99L46.72-45.99L45.48-45.99L45.48-45.99Q44.89-45.99 44.35-45.73L44.35-45.73L44.35-45.73Q43.80-45.48 43.36-44.75L43.36-44.75L34.46-31.17L34.46-31.17Q33.21-29.27 32.63-28.69L32.63-28.69L32.63-28.69Q32.05-28.10 30.73-28.10ZM18.54 0L18.54 0L7.66 0L7.66 0Q6.28 0 5.66-0.62L5.66-0.62L5.66-0.62Q5.04-1.24 5.04-2.63L5.04-2.63L5.04-49.93L5.04-49.93Q5.04-51.32 5.66-51.94L5.66-51.94L5.66-51.94Q6.28-52.56 7.66-52.56L7.66-52.56L19.42-52.56L19.42-52.56Q20.59-52.56 21.35-52.05L21.35-52.05L21.35-52.05Q22.12-51.54 22.78-50.37L22.78-50.37L29.35-38.47L29.35-38.47Q29.71-37.81 29.97-37.52L29.97-37.52L29.97-37.52Q30.22-37.23 30.66-37.23L30.66-37.23L31.32-37.23L31.32-37.23Q31.75-37.23 32.01-37.52L32.01-37.52L32.01-37.52Q32.27-37.81 32.63-38.47L32.63-38.47L39.13-50.37L39.13-50.37Q39.78-51.54 40.55-52.05L40.55-52.05L40.55-52.05Q41.32-52.56 42.49-52.56L42.49-52.56L54.31-52.56L54.31-52.56Q55.70-52.56 56.32-51.94L56.32-51.94L56.32-51.94Q56.94-51.32 56.94-49.93L56.94-49.93L56.94-2.63L56.94-2.63Q56.94-1.24 56.32-0.62L56.32-0.62L56.32-0.62Q55.70 0 54.31 0L54.31 0L43.07 0L43.07 0Q41.68 0 41.06-0.62L41.06-0.62L41.06-0.62Q40.44-1.24 40.44-2.63L40.44-2.63L40.44-28.32L36.13-20.37L36.13-20.37Q35.48-19.13 34.57-18.58L34.57-18.58L34.57-18.58Q33.65-18.03 32.27-18.03L32.27-18.03L29.35-18.03L29.35-18.03Q27.96-18.03 27.05-18.58L27.05-18.58L27.05-18.58Q26.13-19.13 25.48-20.37L25.48-20.37L21.17-28.32L21.17-2.63L21.17-2.63Q21.17-1.24 20.55-0.62L20.55-0.62L20.55-0.62Q19.93 0 18.54 0ZM101.98 0L101.98 0L84.17 0L84.17 0Q75.04 0 70.63-3.65L70.63-3.65L70.63-3.65Q66.21-7.30 66.21-14.89L66.21-14.89L66.21-37.59L66.21-37.59Q66.21-45.19 70.63-48.87L70.63-48.87L70.63-48.87Q75.04-52.56 84.17-52.56L84.17-52.56L101.98-52.56L101.98-52.56Q103.37-52.56 103.99-51.94L103.99-51.94L103.99-51.94Q104.61-51.32 104.61-49.93L104.61-49.93L104.61-41.10L104.61-41.10Q104.61-39.71 103.99-39.09L103.99-39.09L103.99-39.09Q103.37-38.47 101.98-38.47L101.98-38.47L87.31-38.47L87.31-38.47Q85.04-38.47 83.95-37.56L83.95-37.56L83.95-37.56Q82.85-36.65 82.85-34.82L82.85-34.82L82.85-17.45L82.85-17.45Q82.85-15.62 83.95-14.78L83.95-14.78L83.95-14.78Q85.04-13.94 87.31-13.94L87.31-13.94L101.98-13.94L101.98-13.94Q103.37-13.94 103.99-13.32L103.99-13.32L103.99-13.32Q104.61-12.70 104.61-11.31L104.61-11.31L104.61-2.63L104.61-2.63Q104.61-1.24 103.99-0.62L103.99-0.62L103.99-0.62Q103.37 0 101.98 0ZM97.97-6.57L97.97-7.30L85.77-7.30L85.77-7.30Q79.20-7.30 77.02-9.27L77.02-9.27L77.02-9.27Q74.82-11.24 74.82-15.99L74.82-15.99L74.82-36.43L74.82-36.43Q74.82-41.24 77.09-43.25L77.09-43.25L77.09-43.25Q79.35-45.26 85.77-45.26L85.77-45.26L97.97-45.26L97.97-45.99L85.77-45.99L85.77-45.99Q78.77-45.99 76.43-43.80L76.43-43.80L76.43-43.80Q74.09-41.61 74.09-36.43L74.09-36.43L74.09-15.99L74.09-15.99Q74.09-10.95 76.39-8.76L76.39-8.76L76.39-8.76Q78.69-6.57 85.77-6.57L85.77-6.57L97.97-6.57ZM137.24 0L137.24 0L114.17 0L114.17 0Q112.78 0 112.16-0.62L112.16-0.62L112.16-0.62Q111.54-1.24 111.54-2.63L111.54-2.63L111.54-11.17L111.54-11.17Q111.54-12.56 112.16-13.18L112.16-13.18L112.16-13.18Q112.78-13.80 114.17-13.80L114.17-13.80L133.81-13.80L133.81-13.80Q134.76-13.80 135.23-14.42L135.23-14.42L135.23-14.42Q135.71-15.04 135.71-15.91L135.71-15.91L135.71-15.91Q135.71-17.15 135.23-17.74L135.23-17.74L135.23-17.74Q134.76-18.32 133.81-18.40L133.81-18.40L122.86-19.93L122.86-19.93Q117.75-20.66 114.65-23.29L114.65-23.29L114.65-23.29Q111.54-25.91 111.54-32.05L111.54-32.05L111.54-39.71L111.54-39.71Q111.54-45.92 115.56-49.24L115.56-49.24L115.56-49.24Q119.57-52.56 126.66-52.56L126.66-52.56L147.09-52.56L147.09-52.56Q148.48-52.56 149.10-51.94L149.10-51.94L149.10-51.94Q149.72-51.32 149.72-49.93L149.72-49.93L149.72-41.24L149.72-41.24Q149.72-39.86 149.10-39.24L149.10-39.24L149.10-39.24Q148.48-38.62 147.09-38.62L147.09-38.62L130.09-38.62L130.09-38.62Q129.14-38.62 128.63-38.00L128.63-38.00L128.63-38.00Q128.12-37.38 128.12-36.43L128.12-36.43L128.12-36.43Q128.12-35.48 128.63-34.82L128.63-34.82L128.63-34.82Q129.14-34.16 130.09-34.09L130.09-34.09L140.96-32.63L140.96-32.63Q146.07-31.90 149.21-29.27L149.21-29.27L149.21-29.27Q152.35-26.64 152.35-20.51L152.35-20.51L152.35-12.85L152.35-12.85Q152.35-6.64 148.30-3.32L148.30-3.32L148.30-3.32Q144.25 0 137.24 0ZM143.15-45.26L143.15-45.99L126.95-45.99L126.95-45.99Q123.59-45.99 121.55-44.13L121.55-44.13L121.55-44.13Q119.50-42.27 119.50-39.35L119.50-39.35L119.50-33.36L119.50-33.36Q119.50-30.37 120.71-29.24L120.71-29.24L120.71-29.24Q121.91-28.10 123.81-27.74L123.81-27.74L139.21-24.60L139.21-24.60Q141.25-24.16 142.46-22.89L142.46-22.89L142.46-22.89Q143.66-21.61 143.66-18.18L143.66-18.18L143.66-13.94L143.66-13.94Q143.66-11.02 141.66-9.16L141.66-9.16L141.66-9.16Q139.65-7.30 136.29-7.30L136.29-7.30L118.11-7.30L118.11-6.57L136.29-6.57L136.29-6.57Q140.01-6.57 142.20-8.65L142.20-8.65L142.20-8.65Q144.39-10.73 144.39-13.94L144.39-13.94L144.39-18.18L144.39-18.18Q144.39-21.97 142.97-23.43L142.97-23.43L142.97-23.43Q141.55-24.89 139.36-25.33L139.36-25.33L123.95-28.47L123.95-28.47Q122.27-28.76 121.25-29.78L121.25-29.78L121.25-29.78Q120.23-30.81 120.23-33.36L120.23-33.36L120.23-39.35L120.23-39.35Q120.23-41.90 122.06-43.58L122.06-43.58L122.06-43.58Q123.88-45.26 126.95-45.26L126.95-45.26L143.15-45.26Z" fill="url(#editing-shiny-gradient)"></path></g></g><g filter="url(#editing-shiny2)"><g transform="translate(171.29718112945557, 101.26437568664551)"><path d="M30.73-28.10L30.73-28.10L30.73-28.10Q29.42-28.10 28.83-28.69L28.83-28.69L28.83-28.69Q28.25-29.27 27.01-31.17L27.01-31.17L18.10-44.75L18.10-44.75Q17.67-45.48 17.08-45.73L17.08-45.73L17.08-45.73Q16.50-45.99 15.91-45.99L15.91-45.99L14.67-45.99L14.67-45.99Q13.72-45.99 13.25-45.44L13.25-45.44L13.25-45.44Q12.77-44.89 12.77-43.73L12.77-43.73L12.77-6.57L13.50-6.57L13.50-43.73L13.50-43.73Q13.50-44.31 13.72-44.79L13.72-44.79L13.72-44.79Q13.94-45.26 14.67-45.26L14.67-45.26L15.77-45.26L15.77-45.26Q16.28-45.26 16.68-45.11L16.68-45.11L16.68-45.11Q17.08-44.97 17.52-44.24L17.52-44.24L26.43-30.81L26.43-30.81Q27.74-28.83 28.43-28.10L28.43-28.10L28.43-28.10Q29.13-27.38 30.73-27.38L30.73-27.38L30.73-27.38Q32.34-27.38 33.03-28.10L33.03-28.10L33.03-28.10Q33.73-28.83 35.04-30.81L35.04-30.81L43.95-44.24L43.95-44.24Q44.38-44.97 44.75-45.11L44.75-45.11L44.75-45.11Q45.11-45.26 45.63-45.26L45.63-45.26L46.72-45.26L46.72-45.26Q47.45-45.26 47.71-44.79L47.71-44.79L47.71-44.79Q47.96-44.31 47.96-43.73L47.96-43.73L47.96-6.57L48.69-6.57L48.69-43.73L48.69-43.73Q48.69-44.89 48.22-45.44L48.22-45.44L48.22-45.44Q47.74-45.99 46.72-45.99L46.72-45.99L45.48-45.99L45.48-45.99Q44.89-45.99 44.35-45.73L44.35-45.73L44.35-45.73Q43.80-45.48 43.36-44.75L43.36-44.75L34.46-31.17L34.46-31.17Q33.21-29.27 32.63-28.69L32.63-28.69L32.63-28.69Q32.05-28.10 30.73-28.10ZM18.54 0L18.54 0L7.66 0L7.66 0Q6.28 0 5.66-0.62L5.66-0.62L5.66-0.62Q5.04-1.24 5.04-2.63L5.04-2.63L5.04-49.93L5.04-49.93Q5.04-51.32 5.66-51.94L5.66-51.94L5.66-51.94Q6.28-52.56 7.66-52.56L7.66-52.56L19.42-52.56L19.42-52.56Q20.59-52.56 21.35-52.05L21.35-52.05L21.35-52.05Q22.12-51.54 22.78-50.37L22.78-50.37L29.35-38.47L29.35-38.47Q29.71-37.81 29.97-37.52L29.97-37.52L29.97-37.52Q30.22-37.23 30.66-37.23L30.66-37.23L31.32-37.23L31.32-37.23Q31.75-37.23 32.01-37.52L32.01-37.52L32.01-37.52Q32.27-37.81 32.63-38.47L32.63-38.47L39.13-50.37L39.13-50.37Q39.78-51.54 40.55-52.05L40.55-52.05L40.55-52.05Q41.32-52.56 42.49-52.56L42.49-52.56L54.31-52.56L54.31-52.56Q55.70-52.56 56.32-51.94L56.32-51.94L56.32-51.94Q56.94-51.32 56.94-49.93L56.94-49.93L56.94-2.63L56.94-2.63Q56.94-1.24 56.32-0.62L56.32-0.62L56.32-0.62Q55.70 0 54.31 0L54.31 0L43.07 0L43.07 0Q41.68 0 41.06-0.62L41.06-0.62L41.06-0.62Q40.44-1.24 40.44-2.63L40.44-2.63L40.44-28.32L36.13-20.37L36.13-20.37Q35.48-19.13 34.57-18.58L34.57-18.58L34.57-18.58Q33.65-18.03 32.27-18.03L32.27-18.03L29.35-18.03L29.35-18.03Q27.96-18.03 27.05-18.58L27.05-18.58L27.05-18.58Q26.13-19.13 25.48-20.37L25.48-20.37L21.17-28.32L21.17-2.63L21.17-2.63Q21.17-1.24 20.55-0.62L20.55-0.62L20.55-0.62Q19.93 0 18.54 0ZM101.98 0L101.98 0L84.17 0L84.17 0Q75.04 0 70.63-3.65L70.63-3.65L70.63-3.65Q66.21-7.30 66.21-14.89L66.21-14.89L66.21-37.59L66.21-37.59Q66.21-45.19 70.63-48.87L70.63-48.87L70.63-48.87Q75.04-52.56 84.17-52.56L84.17-52.56L101.98-52.56L101.98-52.56Q103.37-52.56 103.99-51.94L103.99-51.94L103.99-51.94Q104.61-51.32 104.61-49.93L104.61-49.93L104.61-41.10L104.61-41.10Q104.61-39.71 103.99-39.09L103.99-39.09L103.99-39.09Q103.37-38.47 101.98-38.47L101.98-38.47L87.31-38.47L87.31-38.47Q85.04-38.47 83.95-37.56L83.95-37.56L83.95-37.56Q82.85-36.65 82.85-34.82L82.85-34.82L82.85-17.45L82.85-17.45Q82.85-15.62 83.95-14.78L83.95-14.78L83.95-14.78Q85.04-13.94 87.31-13.94L87.31-13.94L101.98-13.94L101.98-13.94Q103.37-13.94 103.99-13.32L103.99-13.32L103.99-13.32Q104.61-12.70 104.61-11.31L104.61-11.31L104.61-2.63L104.61-2.63Q104.61-1.24 103.99-0.62L103.99-0.62L103.99-0.62Q103.37 0 101.98 0ZM97.97-6.57L97.97-7.30L85.77-7.30L85.77-7.30Q79.20-7.30 77.02-9.27L77.02-9.27L77.02-9.27Q74.82-11.24 74.82-15.99L74.82-15.99L74.82-36.43L74.82-36.43Q74.82-41.24 77.09-43.25L77.09-43.25L77.09-43.25Q79.35-45.26 85.77-45.26L85.77-45.26L97.97-45.26L97.97-45.99L85.77-45.99L85.77-45.99Q78.77-45.99 76.43-43.80L76.43-43.80L76.43-43.80Q74.09-41.61 74.09-36.43L74.09-36.43L74.09-15.99L74.09-15.99Q74.09-10.95 76.39-8.76L76.39-8.76L76.39-8.76Q78.69-6.57 85.77-6.57L85.77-6.57L97.97-6.57ZM137.24 0L137.24 0L114.17 0L114.17 0Q112.78 0 112.16-0.62L112.16-0.62L112.16-0.62Q111.54-1.24 111.54-2.63L111.54-2.63L111.54-11.17L111.54-11.17Q111.54-12.56 112.16-13.18L112.16-13.18L112.16-13.18Q112.78-13.80 114.17-13.80L114.17-13.80L133.81-13.80L133.81-13.80Q134.76-13.80 135.23-14.42L135.23-14.42L135.23-14.42Q135.71-15.04 135.71-15.91L135.71-15.91L135.71-15.91Q135.71-17.15 135.23-17.74L135.23-17.74L135.23-17.74Q134.76-18.32 133.81-18.40L133.81-18.40L122.86-19.93L122.86-19.93Q117.75-20.66 114.65-23.29L114.65-23.29L114.65-23.29Q111.54-25.91 111.54-32.05L111.54-32.05L111.54-39.71L111.54-39.71Q111.54-45.92 115.56-49.24L115.56-49.24L115.56-49.24Q119.57-52.56 126.66-52.56L126.66-52.56L147.09-52.56L147.09-52.56Q148.48-52.56 149.10-51.94L149.10-51.94L149.10-51.94Q149.72-51.32 149.72-49.93L149.72-49.93L149.72-41.24L149.72-41.24Q149.72-39.86 149.10-39.24L149.10-39.24L149.10-39.24Q148.48-38.62 147.09-38.62L147.09-38.62L130.09-38.62L130.09-38.62Q129.14-38.62 128.63-38.00L128.63-38.00L128.63-38.00Q128.12-37.38 128.12-36.43L128.12-36.43L128.12-36.43Q128.12-35.48 128.63-34.82L128.63-34.82L128.63-34.82Q129.14-34.16 130.09-34.09L130.09-34.09L140.96-32.63L140.96-32.63Q146.07-31.90 149.21-29.27L149.21-29.27L149.21-29.27Q152.35-26.64 152.35-20.51L152.35-20.51L152.35-12.85L152.35-12.85Q152.35-6.64 148.30-3.32L148.30-3.32L148.30-3.32Q144.25 0 137.24 0ZM143.15-45.26L143.15-45.99L126.95-45.99L126.95-45.99Q123.59-45.99 121.55-44.13L121.55-44.13L121.55-44.13Q119.50-42.27 119.50-39.35L119.50-39.35L119.50-33.36L119.50-33.36Q119.50-30.37 120.71-29.24L120.71-29.24L120.71-29.24Q121.91-28.10 123.81-27.74L123.81-27.74L139.21-24.60L139.21-24.60Q141.25-24.16 142.46-22.89L142.46-22.89L142.46-22.89Q143.66-21.61 143.66-18.18L143.66-18.18L143.66-13.94L143.66-13.94Q143.66-11.02 141.66-9.16L141.66-9.16L141.66-9.16Q139.65-7.30 136.29-7.30L136.29-7.30L118.11-7.30L118.11-6.57L136.29-6.57L136.29-6.57Q140.01-6.57 142.20-8.65L142.20-8.65L142.20-8.65Q144.39-10.73 144.39-13.94L144.39-13.94L144.39-18.18L144.39-18.18Q144.39-21.97 142.97-23.43L142.97-23.43L142.97-23.43Q141.55-24.89 139.36-25.33L139.36-25.33L123.95-28.47L123.95-28.47Q122.27-28.76 121.25-29.78L121.25-29.78L121.25-29.78Q120.23-30.81 120.23-33.36L120.23-33.36L120.23-39.35L120.23-39.35Q120.23-41.90 122.06-43.58L122.06-43.58L122.06-43.58Q123.88-45.26 126.95-45.26L126.95-45.26L143.15-45.26Z" fill="url(#editing-shiny-gradient2)"></path></g></g><style>text {
  font-size: 64px;
  font-family: Arial Black;
  dominant-baseline: central;
  text-anchor: middle;
}</style></svg>